<?xml version="1.0" ?><!DOCTYPE svg  PUBLIC '-//W3C//DTD SVG 1.1//EN'  'http://www.w3.org/Graphics/SVG/1.1/DTD/svg11.dtd'><svg enable-background="new 0 0 48 48" height="48px" id="Layer_1" version="1.1" viewBox="0 0 48 48" width="48px" xml:space="preserve" xmlns="http://www.w3.org/2000/svg" xmlns:xlink="http://www.w3.org/1999/xlink"><path d="M45.709,19.873H5.728c-0.688-0.385-1.302-0.91-1.776-1.537c-0.922-1.217-1.315-2.72-1.107-4.231s0.993-2.853,2.21-3.775  c2.396-1.816,5.762-1.427,7.721,0.797c-0.071,0.08-0.154,0.146-0.218,0.234c-0.77,1.058-0.888,2.442-0.31,3.615  c0.068,0.138,0.195,0.237,0.346,0.268c0.034,0.008,0.068,0.012,0.103,0.012c0.117,0,0.231-0.041,0.322-0.118l4.466-3.759  c0.118-0.1,0.183-0.246,0.178-0.4c-0.005-0.153-0.081-0.296-0.205-0.387c-0.604-0.44-1.317-0.672-2.062-0.672  c-0.661,0-1.29,0.208-1.84,0.548c-2.297-2.628-6.28-3.074-9.103-0.935c-1.43,1.083-2.352,2.659-2.597,4.437  c-0.245,1.776,0.217,3.542,1.301,4.972c0.256,0.338,0.552,0.648,0.869,0.934H2.709c-0.276,0-0.5,0.224-0.5,0.5  c0,6.174,4.145,11.6,10.36,14.657L8.551,38.97c-0.197,0.192-0.2,0.511-0.007,0.707c0.098,0.101,0.228,0.149,0.357,0.149  c0.126,0,0.253-0.047,0.35-0.143l4.287-4.201c3.163,1.383,6.801,2.176,10.671,2.176s7.508-0.791,10.671-2.176l4.287,4.201  c0.099,0.096,0.224,0.143,0.351,0.143c0.129,0,0.258-0.049,0.356-0.149c0.192-0.196,0.19-0.515-0.007-0.707l-4.02-3.938  c6.217-3.058,10.36-8.482,10.36-14.657C46.209,20.096,45.986,19.873,45.709,19.873z M16.283,11.081l-3.352,2.82  c-0.132-0.674,0.018-1.381,0.435-1.953c0.113-0.154,0.244-0.293,0.387-0.417c0.003-0.002,0.006-0.002,0.009-0.004  c0.007-0.005,0.01-0.014,0.017-0.02c0.448-0.376,1.019-0.591,1.615-0.591C15.702,10.918,16.001,10.974,16.283,11.081z   M24.209,36.658c-11.362,0-20.623-7.039-20.967-15.787h41.936C44.832,29.619,35.57,36.658,24.209,36.658z"/><path d="M16.836,14.207c0-0.435-0.353-0.786-0.786-0.786c-0.433,0-0.786,0.353-0.786,0.786c0,0.433,0.353,0.785,0.786,0.785  C16.484,14.992,16.836,14.641,16.836,14.207z M15.836,14.207c0-0.118,0.096-0.215,0.214-0.215c0.118,0,0.214,0.097,0.214,0.215  C16.265,14.443,15.836,14.443,15.836,14.207z"/><path d="M16.397,16.942c0.434,0,0.786-0.353,0.786-0.786c0-0.433-0.353-0.786-0.786-0.786s-0.786,0.354-0.786,0.786  C15.611,16.59,15.964,16.942,16.397,16.942z M16.397,15.942c0.118,0,0.214,0.096,0.214,0.214c0,0.236-0.428,0.236-0.428,0  C16.184,16.038,16.279,15.942,16.397,15.942z"/><path d="M17.126,14.882c0,0.434,0.353,0.786,0.786,0.786s0.786-0.354,0.786-0.786c0-0.434-0.353-0.786-0.786-0.786  S17.126,14.447,17.126,14.882z M17.913,14.668c0.118,0,0.214,0.096,0.214,0.214c0,0.235-0.428,0.235-0.428,0  C17.699,14.763,17.794,14.668,17.913,14.668z"/><path d="M16.745,18.893c0.433,0,0.786-0.353,0.786-0.786c0-0.433-0.353-0.786-0.786-0.786c-0.434,0-0.786,0.354-0.786,0.786  C15.959,18.54,16.311,18.893,16.745,18.893z M16.745,17.893c0.118,0,0.214,0.096,0.214,0.214c0,0.236-0.428,0.236-0.428,0  C16.53,17.988,16.626,17.893,16.745,17.893z"/><path d="M19.775,16.342c0.433,0,0.786-0.354,0.786-0.786s-0.353-0.786-0.786-0.786c-0.434,0-0.786,0.354-0.786,0.786  S19.341,16.342,19.775,16.342z M19.775,15.342c0.118,0,0.214,0.096,0.214,0.214c0,0.236-0.428,0.236-0.428,0  C19.561,15.438,19.657,15.342,19.775,15.342z"/><path d="M17.473,16.832c0,0.434,0.353,0.785,0.786,0.785c0.433,0,0.786-0.353,0.786-0.785c0-0.434-0.353-0.786-0.786-0.786  C17.826,16.046,17.473,16.397,17.473,16.832z M18.473,16.832c0,0.235-0.428,0.235-0.428,0c0-0.118,0.096-0.215,0.214-0.215  C18.377,16.617,18.473,16.714,18.473,16.832z"/></svg>